<svg width="19" height="32" viewBox="0 0 19 32" fill="none" xmlns="http://www.w3.org/2000/svg">
<path d="M3.42419 0.515023C2.8384 -0.070763 1.88865 -0.070763 1.30287 0.515023C0.717079 1.10081 0.717079 2.05056 1.30287 2.63634L3.42419 0.515023ZM16.7878 15.9999L17.8432 17.0658C18.1268 16.785 18.2868 16.4027 18.2878 16.0036C18.2887 15.6045 18.1306 15.2215 17.8484 14.9393L16.7878 15.9999ZM1.3081 29.2169C0.719438 29.7998 0.714759 30.7495 1.29765 31.3382C1.88055 31.9268 2.83028 31.9315 3.41895 31.3486L1.3081 29.2169ZM1.30287 2.63634L15.7271 17.0606L17.8484 14.9393L3.42419 0.515023L1.30287 2.63634ZM15.7323 14.9341L1.3081 29.2169L3.41895 31.3486L17.8432 17.0658L15.7323 14.9341Z" fill="white" fill-opacity="0.7"/>
</svg>
