<svg width="11" height="21" viewBox="0 0 11 21" fill="none" xmlns="http://www.w3.org/2000/svg">
<path d="M14.0368 3.08396C14.6355 2.51134 14.6566 1.56182 14.084 0.963166C13.5113 0.36451 12.5618 0.34341 11.9632 0.916037L14.0368 3.08396ZM1.5 13L0.463166 11.916C0.158386 12.2076 -0.00958037 12.6139 0.000421882 13.0356C0.0104241 13.4572 0.197471 13.8552 0.515732 14.1319L1.5 13ZM12.0157 24.1319C12.6409 24.6755 13.5883 24.6094 14.1319 23.9843C14.6755 23.3591 14.6094 22.4117 13.9843 21.8681L12.0157 24.1319ZM11.9632 0.916037L0.463166 11.916L2.53683 14.084L14.0368 3.08396L11.9632 0.916037ZM0.515732 14.1319L12.0157 24.1319L13.9843 21.8681L2.48427 11.8681L0.515732 14.1319Z" fill="white" fill-opacity="0.7"/>
</svg>
