<svg width="62" height="22" viewBox="0 0 62 22" fill="none" xmlns="http://www.w3.org/2000/svg">
<path d="M24.602 11C24.602 15.9829 20.6182 20 15.7313 20V22C21.7473 22 26.602 17.0628 26.602 11H24.602ZM15.7313 20C10.8445 20 6.8607 15.9829 6.8607 11H4.8607C4.8607 17.0628 9.71542 22 15.7313 22V20ZM6.8607 11C6.8607 6.01712 10.8445 2 15.7313 2V0C9.71542 0 4.8607 4.93718 4.8607 11H6.8607ZM15.7313 2C20.6182 2 24.602 6.01712 24.602 11H26.602C26.602 4.93718 21.7473 0 15.7313 0V2ZM26.4057 12.22C26.9147 11.5325 28.5013 10.125 30.5373 10.125V8.125C27.638 8.125 25.5231 10.0508 24.7983 11.03L26.4057 12.22ZM30.5373 10.125C32.5733 10.125 34.1599 11.5325 34.6689 12.22L36.2764 11.03C35.5515 10.0508 33.4366 8.125 30.5373 8.125V10.125ZM6.16915 10H0V12H6.16915V10ZM62 10H55.8308V12H62V10ZM54.2139 11C54.2139 15.9829 50.2302 20 45.3433 20V22C51.3592 22 56.2139 17.0628 56.2139 11H54.2139ZM45.3433 20C40.4564 20 36.4726 15.9829 36.4726 11H34.4726C34.4726 17.0628 39.3274 22 45.3433 22V20ZM36.4726 11C36.4726 6.01712 40.4564 2 45.3433 2V0C39.3274 0 34.4726 4.93718 34.4726 11H36.4726ZM45.3433 2C50.2302 2 54.2139 6.01712 54.2139 11H56.2139C56.2139 4.93718 51.3592 0 45.3433 0V2Z" fill="white" fill-opacity="0.7"/>
</svg>
